<svg width="20" height="20" viewBox="0 0 20 20" fill="none" xmlns="http://www.w3.org/2000/svg">
<path fill-rule="evenodd" clip-rule="evenodd" d="M16.3761 14.9528C16.2104 15.3362 15.8522 15.572 15.4785 15.5463L12.1887 15.5037L12.0991 15.899C11.9879 16.3925 11.605 17.2545 10.2987 17.4854C10.204 17.5012 10.1011 17.5012 10.0013 17.5092C9.90038 17.5012 9.79641 17.5012 9.70171 17.4844C8.39545 17.2545 8.01252 16.3925 7.90135 15.899L7.8118 15.5037L4.52195 15.5463C4.14829 15.572 3.79007 15.3352 3.62434 14.9528C3.44523 14.5406 3.49155 13.9391 3.998 13.521C4.72885 12.9176 5.59352 11.9683 5.79836 9.97077C6.03717 7.65416 6.88434 6.00539 8.25031 5.11759C9.3157 4.42598 10.6837 4.42598 11.7491 5.11759C13.1151 6.0044 13.9633 7.65416 14.2021 9.97176C14.4069 11.9683 15.2716 12.9176 16.0025 13.522C16.5089 13.9391 16.5552 14.5406 16.3761 14.9528ZM10.0002 2.49085C10.2298 2.49085 10.4161 2.67019 10.4161 2.89214C10.4161 3.1131 10.2298 3.29245 10.0002 3.29245C9.77068 3.29245 9.58334 3.1131 9.58334 2.89214C9.58334 2.67019 9.77068 2.49085 10.0002 2.49085ZM16.6726 12.7689C16.0519 12.2567 15.3941 11.5105 15.2263 9.87367C14.8856 6.56423 13.5237 4.45669 11.1449 3.73139C11.3312 3.49755 11.4455 3.20822 11.4455 2.89214C11.4455 2.12423 10.797 1.5 10.0002 1.5C9.20247 1.5 8.55397 2.12423 8.55397 2.89214C8.55397 3.19633 8.65897 3.47575 8.8319 3.70563C6.45304 4.43192 5.11486 6.55928 4.77414 9.87367C4.60636 11.5105 3.94859 12.2567 3.32788 12.7689C2.42822 13.5101 2.35102 14.5921 2.67424 15.3342C3.01084 16.1121 3.78595 16.5956 4.56827 16.5351L5.44426 16.5242C5.91365 16.5183 6.89772 16.4995 6.89772 16.4995C6.89772 16.4995 7.38976 17.2446 7.65328 17.5161C8.11958 17.9947 8.75881 18.3256 9.5154 18.4594C9.66877 18.4861 9.8345 18.4911 9.99817 18.5C9.9992 18.5 10.0002 18.5 10.0013 18.5H10.0023C10.1649 18.4911 10.3307 18.4861 10.484 18.4594C11.2416 18.3256 11.8809 17.9947 12.3472 17.5161C12.6169 17.2396 13.1861 16.4529 13.1861 16.4529C13.1861 16.4529 14.095 16.5183 14.5552 16.5242L15.4322 16.5361C16.2145 16.5956 16.9896 16.1121 17.3262 15.3342C17.6484 14.5921 17.5722 13.5111 16.6726 12.7689Z" fill="#7A8185"/>
</svg>
