<svg width="24" height="21" viewBox="0 0 24 21" fill="none" xmlns="http://www.w3.org/2000/svg">
<path fill-rule="evenodd" clip-rule="evenodd" d="M9.71498 1.365V5.985H14.335V1.365H9.71498ZM9.39998 0C8.82008 0 8.34998 0.470101 8.34998 1.05V6.3C8.34998 6.8799 8.82008 7.35 9.39998 7.35H14.65C15.2299 7.35 15.7 6.8799 15.7 6.3V1.05C15.7 0.470101 15.2299 0 14.65 0H9.39998Z" fill="white"/>
<path fill-rule="evenodd" clip-rule="evenodd" d="M19.165 17.115V19.635H21.685V17.115H19.165ZM18.85 15.75C18.2701 15.75 17.8 16.2201 17.8 16.8V19.95C17.8 20.5299 18.2701 21 18.85 21H22C22.5799 21 23.05 20.5299 23.05 19.95V16.8C23.05 16.2201 22.5799 15.75 22 15.75H18.85Z" fill="white"/>
<rect x="11.5" y="8.3999" width="1.05" height="6.3" rx="0.5" fill="white"/>
<rect x="3.09998" y="11.55" width="1.05" height="3.15" rx="0.5" fill="white"/>
<path fill-rule="evenodd" clip-rule="evenodd" d="M4.67325 11.55C4.38648 11.55 4.154 11.7825 4.154 12.0692H3.104C3.104 11.2026 3.80658 10.5 4.67325 10.5H19.375C20.2449 10.5 20.95 11.2052 20.95 12.075V12.9968H19.9V12.075C19.9 11.7851 19.665 11.55 19.375 11.55H4.67325Z" fill="white"/>
<rect x="19.9" y="11.55" width="1.05" height="3.15" rx="0.5" fill="white"/>
<path fill-rule="evenodd" clip-rule="evenodd" d="M10.765 17.115V19.635H13.285V17.115H10.765ZM10.45 15.75C9.87013 15.75 9.40002 16.2201 9.40002 16.8V19.95C9.40002 20.5299 9.87013 21 10.45 21H13.6C14.1799 21 14.65 20.5299 14.65 19.95V16.8C14.65 16.2201 14.1799 15.75 13.6 15.75H10.45Z" fill="white"/>
<path fill-rule="evenodd" clip-rule="evenodd" d="M2.365 17.115V19.635H4.885V17.115H2.365ZM2.05 15.75C1.4701 15.75 1 16.2201 1 16.8V19.95C1 20.5299 1.4701 21 2.05 21H5.2C5.7799 21 6.25 20.5299 6.25 19.95V16.8C6.25 16.2201 5.7799 15.75 5.2 15.75H2.05Z" fill="white"/>
</svg>
