<svg width="26" height="21" viewBox="0 0 26 21" fill="none" xmlns="http://www.w3.org/2000/svg">
<path fill-rule="evenodd" clip-rule="evenodd" d="M10.2066 15.9132H20.8841V4.15979H2.42029V15.9132H6.52911V18.3534L10.2066 15.9132ZM5.10882 21.0004V17.3335H2.01449C1.4542 17.3335 1 16.8793 1 16.319V3.754C1 3.19371 1.4542 2.7395 2.01449 2.7395H21.2899C21.8501 2.7395 22.3043 3.19371 22.3043 3.75399V16.319C22.3043 16.8793 21.8501 17.3335 21.2899 17.3335H10.6349L5.10882 21.0004Z" fill="white"/>
<path fill-rule="evenodd" clip-rule="evenodd" d="M6.07248 1.42078C5.90439 1.42078 5.76813 1.55704 5.76813 1.72513V3.97128H4.34784V1.72513C4.34784 0.772635 5.11999 0.000488281 6.07248 0.000488281H23.3712C24.3237 0.000488281 25.0958 0.772637 25.0958 1.72513V12.2858C25.0958 13.2383 24.3237 14.0104 23.3712 14.0104H21.065V12.5901H23.3712C23.5393 12.5901 23.6756 12.4539 23.6756 12.2858V1.72513C23.6756 1.55704 23.5393 1.42078 23.3712 1.42078H6.07248Z" fill="white"/>
<rect x="4.04346" y="6.79761" width="12.1739" height="1.01449" rx="0.5" fill="white"/>
<rect x="4.04346" y="9.84106" width="10.1449" height="1.01449" rx="0.5" fill="white"/>
<rect x="4.04346" y="12.8845" width="11.1594" height="1.01449" rx="0.5" fill="white"/>
</svg>
