<svg width="122" height="40" viewBox="0 0 122 40" fill="none" xmlns="http://www.w3.org/2000/svg">
<rect x="0.35" y="0.35" width="121.3" height="39.3" rx="5.65" fill="white" stroke="#A6A6A6" stroke-width="0.7"/>
<path d="M28.3823 20.0604C28.3915 19.1918 28.6212 18.3397 29.0497 17.5841C29.4782 16.8285 30.0916 16.1941 30.8323 15.7404C30.362 15.0696 29.7424 14.5172 29.0222 14.1268C28.302 13.7363 27.501 13.5185 26.6823 13.4904C24.9323 13.3104 23.2423 14.4904 22.3523 14.4904C21.4623 14.4904 20.0723 13.4904 18.6023 13.4904C17.6478 13.521 16.7175 13.7989 15.9025 14.2966C15.0874 14.7944 14.4155 15.4952 13.9523 16.3304C11.9523 19.8104 13.4323 24.9304 15.3623 27.7404C16.3623 29.1204 17.4523 30.6604 18.9323 30.6104C20.4123 30.5604 20.9323 29.6904 22.6523 29.6904C24.3723 29.6904 24.8823 30.6104 26.3823 30.5704C27.8823 30.5304 28.9123 29.1904 29.8423 27.8004C30.5365 26.8191 31.0668 25.7316 31.4123 24.5804C30.5226 24.1921 29.7652 23.5532 29.2324 22.7417C28.6997 21.9301 28.4147 20.9811 28.4123 20.0104L28.3823 20.0604Z" fill="black"/>
<path d="M25.5431 11.64C26.384 10.6213 26.7995 9.31743 26.7031 8C25.4117 8.13588 24.2191 8.75363 23.3631 9.73C22.5228 10.6955 22.0954 11.9524 22.1731 13.23C22.8191 13.235 23.4579 13.0936 24.0416 12.8165C24.6252 12.5394 25.1385 12.1338 25.5431 11.63V11.64Z" fill="black"/>
<path d="M41.1974 24.7251H44.5004L42.8709 19.9246H42.8181L41.1886 24.7251H41.1974ZM44.932 26.0903H40.7658L39.7616 29.0411H38L41.9373 18.1013H43.7694L47.7242 29.0411H45.9626L44.932 26.0903Z" fill="black"/>
<path d="M54.5763 25.0599C54.5763 23.4392 53.6955 22.4175 52.4712 22.4175C51.2468 22.4175 50.3748 23.5009 50.3748 25.0599C50.3748 26.619 51.2556 27.7024 52.4712 27.7024C53.6867 27.7024 54.5763 26.6542 54.5763 25.0599ZM56.2587 25.0599C56.2587 27.535 54.9286 29.1293 52.9292 29.1293C52.4216 29.1544 51.9171 29.0365 51.4733 28.7888C51.0294 28.5412 50.6641 28.1739 50.4189 27.7288V31.6837H48.7453V21.1138H50.3308V22.4351C50.5861 21.9922 50.957 21.6271 51.4038 21.3789C51.8507 21.1306 52.3566 21.0086 52.8675 21.0258C54.8934 21.0258 56.2234 22.6289 56.2234 25.104L56.2587 25.0599Z" fill="black"/>
<path d="M63.3569 25.0596C63.3569 23.4389 62.5202 22.4171 61.243 22.4171C59.9658 22.4171 59.1554 23.5005 59.1554 25.0596C59.1554 26.6186 60.0363 27.702 61.243 27.702C62.4497 27.702 63.3569 26.6539 63.3569 25.0596ZM65.0393 25.0596C65.0393 27.5347 63.7093 29.129 61.7098 29.129C61.202 29.1551 60.6972 29.0376 60.2531 28.7899C59.8091 28.5422 59.4439 28.1743 59.1995 27.7285V31.6833H57.5259V21.1135H59.1114V22.4347C59.3682 21.9932 59.7394 21.6291 60.1859 21.3811C60.6324 21.133 61.1376 21.0102 61.6482 21.0254C63.674 21.0254 65.0129 22.6285 65.0129 25.1036L65.0393 25.0596Z" fill="black"/>
<path d="M70.8359 25.9932C70.9592 27.0766 72.0162 27.7548 73.4784 27.7548C74.9405 27.7548 75.8478 27.0414 75.8478 26.0637C75.8478 25.086 75.2488 24.7072 73.8307 24.3637L72.3861 24.0554C70.3779 23.571 69.453 22.6285 69.453 21.1047C69.453 19.2197 71.0913 17.9249 73.4255 17.9249C75.7597 17.9249 77.3275 19.2197 77.3804 21.1047H75.7244C75.6275 20.0125 74.7291 19.343 73.4079 19.343C72.0867 19.343 71.1882 20.0125 71.1882 20.9814C71.1882 21.7565 71.7608 22.2145 73.1701 22.558L74.3768 22.8575C76.6229 23.386 77.5565 24.2932 77.5565 25.8875C77.5565 27.931 75.927 29.217 73.3286 29.217C70.9064 29.217 69.2681 27.9662 69.1624 25.9844L70.8359 25.9932Z" fill="black"/>
<path d="M81.09 19.1842V21.0692H82.605V22.364H81.09V26.768C81.09 27.4551 81.3894 27.7722 82.0589 27.7722C82.2262 27.7722 82.4905 27.7722 82.5962 27.7722V29.0582C82.3054 29.1092 82.0105 29.1328 81.7153 29.1286C80.1034 29.1286 79.4693 28.5297 79.4693 26.9794V22.408H78.2802V21.1132H79.4428V19.2282L81.09 19.1842Z" fill="black"/>
<path d="M89.3786 25.0595C89.3786 23.2979 88.5947 22.3202 87.2647 22.3202C85.9346 22.3202 85.1507 23.3419 85.1507 25.0595C85.1507 26.7771 85.9346 27.7901 87.2647 27.7901C88.5947 27.7901 89.3786 26.7859 89.3786 25.0595ZM83.486 25.0595C83.486 22.5492 84.9569 20.9725 87.2647 20.9725C89.5724 20.9725 91.0434 22.5492 91.0434 25.0595C91.0434 27.5699 89.5812 29.1465 87.2647 29.1465C84.9481 29.1465 83.486 27.5787 83.486 25.0595Z" fill="black"/>
<path d="M92.3973 21.0695H93.9564V22.4259C94.0629 22.0018 94.3117 21.6271 94.6611 21.3642C95.0105 21.1013 95.4395 20.9662 95.8766 20.9814C96.0661 20.9827 96.255 21.0034 96.4403 21.043V22.5757C96.2003 22.5045 95.9506 22.4718 95.7004 22.4788C95.4632 22.4696 95.2269 22.5119 95.0075 22.6026C94.7882 22.6933 94.591 22.8303 94.4296 23.0043C94.2681 23.1783 94.1462 23.3852 94.0721 23.6107C93.9981 23.8362 93.9736 24.075 94.0004 24.3109V29.0409H92.3973V21.1135V21.0695Z" fill="black"/>
<path d="M98.4849 24.3196H102.475C102.49 24.0557 102.45 23.7917 102.357 23.5439C102.265 23.2962 102.123 23.0702 101.939 22.88C101.756 22.6899 101.535 22.5396 101.291 22.4387C101.046 22.3379 100.784 22.2885 100.52 22.2938C100.253 22.2926 99.9884 22.3441 99.7416 22.4454C99.4948 22.5467 99.2704 22.6958 99.0813 22.884C98.8923 23.0722 98.7423 23.296 98.6399 23.5423C98.5375 23.7887 98.4848 24.0529 98.4849 24.3196ZM104.016 26.6978C103.796 28.1512 102.387 29.1465 100.59 29.1465C98.2646 29.1465 96.8289 27.5875 96.8289 25.0948C96.8289 22.602 98.2735 20.9725 100.52 20.9725C102.766 20.9725 104.113 22.4875 104.113 24.901V25.4647H98.476V25.5616C98.451 25.8554 98.4885 26.1513 98.5861 26.4296C98.6836 26.7079 98.8391 26.9624 99.0421 27.1762C99.2452 27.3901 99.4913 27.5585 99.7641 27.6704C100.037 27.7823 100.33 27.8351 100.625 27.8253C101.014 27.8682 101.405 27.7807 101.739 27.5766C102.072 27.3725 102.328 27.0633 102.466 26.6978H104.016Z" fill="black"/>
<path d="M40.0329 12.0934H40.7375C40.8617 12.1084 40.9877 12.0968 41.1071 12.0593C41.2265 12.0218 41.3365 11.9593 41.4299 11.876C41.5232 11.7926 41.5977 11.6904 41.6485 11.576C41.6992 11.4616 41.7249 11.3377 41.724 11.2126C41.724 10.7281 41.3629 10.411 40.7463 10.411C40.6217 10.3938 40.495 10.4016 40.3735 10.4342C40.252 10.4667 40.1382 10.5232 40.0389 10.6003C39.9396 10.6775 39.8567 10.7737 39.7951 10.8834C39.7336 10.9931 39.6946 11.114 39.6805 11.239H38.9142C38.9257 11.0131 38.9838 10.792 39.0849 10.5897C39.186 10.3873 39.3279 10.2081 39.5016 10.0633C39.6754 9.91852 39.8772 9.81127 40.0945 9.74832C40.3118 9.68537 40.5397 9.66809 40.7639 9.69756C41.8033 9.69756 42.5256 10.2789 42.5256 11.1157C42.5261 11.3949 42.4312 11.6659 42.2566 11.8838C42.082 12.1017 41.8381 12.2533 41.5655 12.3136V12.3752C41.7263 12.382 41.8842 12.4205 42.0302 12.4884C42.1761 12.5563 42.3073 12.6523 42.4161 12.7709C42.5249 12.8895 42.6093 13.0284 42.6643 13.1797C42.7194 13.331 42.7441 13.4916 42.737 13.6524C42.7162 13.8866 42.6487 14.1143 42.5385 14.322C42.4283 14.5297 42.2777 14.7133 42.0954 14.8619C41.9132 15.0105 41.7031 15.1211 41.4774 15.1872C41.2518 15.2532 41.0152 15.2735 40.7816 15.2467C39.6365 15.2467 38.8526 14.6301 38.8085 13.6877H39.5925C39.5925 14.1897 40.1033 14.5156 40.7816 14.5156C41.4598 14.5156 41.909 14.1545 41.909 13.6348C41.909 13.1151 41.4862 12.754 40.7551 12.754H40.0329V12.0405V12.0934Z" fill="black"/>
<path d="M46.1902 13.6702V13.3355L45.2213 13.3971C44.6752 13.3971 44.4198 13.6173 44.4198 13.9696C44.4198 14.322 44.7369 14.5334 45.1597 14.5334C45.2856 14.5454 45.4127 14.532 45.5333 14.4939C45.654 14.4558 45.7657 14.3938 45.8619 14.3116C45.958 14.2294 46.0367 14.1287 46.0931 14.0155C46.1495 13.9023 46.1825 13.7788 46.1902 13.6526V13.6702ZM43.6359 14.0049C43.6359 13.2914 44.1732 12.8774 45.1156 12.8246L46.1902 12.7629V12.4194C46.1902 11.9966 45.9084 11.7588 45.3711 11.7588C44.8338 11.7588 44.6312 11.9262 44.5431 12.1992H43.7856C43.8737 11.521 44.5079 11.0806 45.4151 11.0806C46.3224 11.0806 46.9654 11.5826 46.9654 12.4194V15.1235H46.2078V14.5686H46.1462C46.0213 14.769 45.8454 14.9326 45.6364 15.0425C45.4274 15.1524 45.193 15.2047 44.9571 15.194C44.7905 15.2112 44.6221 15.1933 44.4628 15.1415C44.3035 15.0896 44.1569 15.0049 44.0324 14.8928C43.9079 14.7808 43.8083 14.6439 43.74 14.4909C43.6717 14.338 43.6362 14.1724 43.6359 14.0049Z" fill="black"/>
<path d="M49.0441 11.821V15.1329H48.2601V11.1692H50.8762V11.821H49.0441Z" fill="black"/>
<path d="M54.8121 13.1417C54.8121 12.2608 54.4157 11.8028 53.7463 11.8028C53.0769 11.8028 52.6805 12.3137 52.6805 13.1417C52.6805 13.9696 53.0945 14.4893 53.7463 14.4893C54.3981 14.4893 54.8121 13.9872 54.8121 13.1417ZM55.6136 13.1417C55.6136 14.4012 54.9794 15.194 53.9753 15.194C53.7297 15.2114 53.4843 15.1575 53.2687 15.0387C53.053 14.92 52.8763 14.7414 52.7598 14.5245H52.6893V16.4447H51.9142V11.1598H52.6629V11.8204H52.7245C52.844 11.5965 53.0234 11.4103 53.2428 11.2827C53.4622 11.1551 53.7128 11.0912 53.9665 11.0982C54.9794 11.0982 55.6136 11.8821 55.6136 13.1417Z" fill="black"/>
<path d="M56.6561 16.5507V15.8724H56.9116C57.0794 15.8861 57.2462 15.8368 57.3797 15.7343C57.5132 15.6317 57.6038 15.4832 57.6338 15.3175L57.6955 15.1237L56.2598 11.1425H57.1406L58.1359 14.2958H58.1976L59.1929 11.1425H60.0209L58.5411 15.2735C58.2064 16.2424 57.8276 16.5507 57.0173 16.5507H56.6914H56.6561Z" fill="black"/>
<path d="M60.5924 14.0051H61.3764C61.4468 14.3487 61.7815 14.5336 62.2572 14.5336C62.7328 14.5336 63.138 14.3046 63.138 13.9435C63.138 13.5823 62.8561 13.3798 62.2572 13.3798H61.6582V12.772H62.1955C62.6623 12.772 62.909 12.5958 62.909 12.2611C62.909 11.9264 62.7064 11.7238 62.1955 11.7238C61.6846 11.7238 61.4292 11.9088 61.3852 12.2171H60.6277C60.6903 11.8612 60.889 11.5436 61.1816 11.3316C61.4742 11.1195 61.8378 11.0296 62.1955 11.0808C63.138 11.0808 63.6753 11.5124 63.6753 12.1818C63.6786 12.3679 63.6184 12.5495 63.5047 12.6967C63.3911 12.844 63.2307 12.9482 63.0499 12.9922V13.0539C63.2647 13.0798 63.4625 13.184 63.6055 13.3464C63.7484 13.5089 63.8266 13.7183 63.825 13.9347C63.825 14.6922 63.182 15.1942 62.2043 15.1942C61.2266 15.1942 60.6277 14.7979 60.5572 13.9963L60.5924 14.0051Z" fill="black"/>
<path d="M64.9888 15.1329V11.1692H65.7639V13.8909H65.8255L67.6488 11.1692H68.4328V15.1329H67.6488V12.3847H67.596L65.7639 15.1329H64.9888Z" fill="black"/>
<path d="M72.7024 11.821H71.4516V15.1329H70.6677V11.821H69.4169V11.1692H72.7024V11.821Z" fill="black"/>
<path d="M74.164 12.7812H76.1635C76.1772 12.6457 76.162 12.5089 76.1189 12.3797C76.0757 12.2506 76.0056 12.1321 75.9131 12.0321C75.8206 11.9321 75.708 11.853 75.5825 11.7999C75.4571 11.7468 75.3219 11.721 75.1857 11.7242C75.0505 11.723 74.9164 11.7489 74.7913 11.8004C74.6662 11.8519 74.5527 11.9279 74.4575 12.0239C74.3622 12.12 74.2872 12.2341 74.2368 12.3597C74.1864 12.4852 74.1616 12.6195 74.164 12.7548V12.7812ZM76.9121 14.0584C76.8153 14.4292 76.5887 14.753 76.2736 14.9711C75.9585 15.1893 75.5757 15.2873 75.1946 15.2475C74.9316 15.2615 74.6689 15.2163 74.4257 15.1154C74.1826 15.0145 73.9651 14.8603 73.7893 14.6643C73.6136 14.4683 73.484 14.2353 73.4101 13.9826C73.3362 13.7299 73.32 13.4638 73.3625 13.204C73.3286 12.9438 73.3507 12.6794 73.4273 12.4284C73.504 12.1775 73.6334 11.9458 73.8069 11.7489C73.9804 11.5521 74.1939 11.3946 74.4333 11.287C74.6726 11.1795 74.9322 11.1243 75.1946 11.1253C76.2956 11.1253 76.9562 11.8828 76.9562 13.1247V13.3978H74.164C74.1517 13.5434 74.17 13.69 74.2177 13.8281C74.2654 13.9662 74.3415 14.0928 74.441 14.1998C74.5405 14.3068 74.6613 14.3918 74.7957 14.4494C74.93 14.5069 75.0749 14.5358 75.221 14.534C75.4074 14.5555 75.596 14.5219 75.7635 14.4374C75.931 14.3528 76.07 14.2211 76.1635 14.0584H76.9121Z" fill="black"/>
<path d="M81.0096 13.3626V14.5252H81.9433C82.4013 14.5252 82.6479 14.3227 82.6479 13.9439C82.6479 13.5652 82.3661 13.3626 81.8464 13.3626H81.0096ZM81.0096 11.7595V12.79H81.7847C82.2604 12.79 82.4894 12.6051 82.4894 12.2704C82.4894 11.9356 82.2868 11.7595 81.8728 11.7595H81.0096ZM80.2345 11.1605H81.9961C82.7712 11.1605 83.2293 11.5569 83.2293 12.1735C83.2351 12.3747 83.1719 12.5718 83.0501 12.7321C82.9283 12.8923 82.7553 13.0061 82.5599 13.0543V13.1159C82.7935 13.1159 83.0175 13.2087 83.1827 13.3739C83.3479 13.5391 83.4407 13.7631 83.4407 13.9968C83.4407 14.6838 82.921 15.133 82.049 15.133H80.2873V11.1693L80.2345 11.1605Z" fill="black"/>
</svg>