<svg width="122" height="40" viewBox="0 0 122 40" fill="none" xmlns="http://www.w3.org/2000/svg">
<rect x="0.35" y="0.35" width="121.3" height="39.3" rx="5.65" fill="white" stroke="#A6A6A6" stroke-width="0.7"/>
<path d="M37.1875 10.8632C37.2285 11.5715 37.054 12.2757 36.687 12.8829H39.3214V8.90494H37.1875V10.8632ZM35.9757 14.648H35.3259V12.8917H35.844C36.0962 12.6244 36.2867 12.305 36.4021 11.956C36.5174 11.607 36.5547 11.237 36.5114 10.872V8.23755H40.0239V12.8566H40.6123V14.6129H39.9625V13.4976H35.9669V14.6129L35.9757 14.648Z" fill="#010100"/>
<path d="M37.1893 10.8634H37.1015V10.9424C37.1347 11.6061 36.9663 12.2643 36.6185 12.8304L36.5307 12.971H39.4461V8.81733H37.1015V10.8634H37.2771V8.99296H39.2705V12.7953H36.6888V12.8831L36.7678 12.9358C37.1327 12.3371 37.3101 11.6428 37.2771 10.9424V10.8634H37.1893ZM35.9775 14.6482V14.5604H35.433V12.971H35.8984C36.1566 12.7047 36.3534 12.3851 36.4747 12.0346C36.5961 11.6842 36.6392 11.3114 36.6009 10.9424V10.881V8.36948H39.9467V12.9885H40.535V14.578H40.0608V13.4627H35.8896V14.6658H35.9775H36.0653V13.6383H39.8237V14.7536H40.6492V12.8129H40.0608V8.19385H36.3638V10.881V10.9424C36.4005 11.2848 36.3621 11.6311 36.2514 11.9571C36.1407 12.2832 35.9603 12.5812 35.7228 12.8304L35.7843 12.9007V12.8129H35.1783V14.7536H36.0038V14.6658L35.9775 14.6482Z" fill="#010100"/>
<path d="M42.5103 12.4087C42.6955 12.6002 42.9182 12.7513 43.1645 12.8525C43.4109 12.9538 43.6755 13.003 43.9417 12.9971C44.208 13.003 44.4726 12.9538 44.7189 12.8525C44.9652 12.7513 45.1879 12.6002 45.3731 12.4087C45.5668 12.2088 45.7186 11.9723 45.8197 11.7129C45.9207 11.4535 45.9689 11.1766 45.9614 10.8983C45.9701 10.6186 45.9225 10.34 45.8214 10.079C45.7203 9.81808 45.5679 9.58007 45.3731 9.37914C45.1879 9.1877 44.9652 9.03662 44.7189 8.93537C44.4726 8.83412 44.208 8.7849 43.9417 8.79078C43.6755 8.7849 43.4109 8.83412 43.1645 8.93537C42.9182 9.03662 42.6955 9.1877 42.5103 9.37914C42.3156 9.58007 42.1631 9.81808 42.062 10.079C41.961 10.34 41.9133 10.6186 41.922 10.8983C41.9145 11.1766 41.9627 11.4535 42.0638 11.7129C42.1648 11.9723 42.3166 12.2088 42.5103 12.4087ZM45.8736 12.8478C45.6255 13.1088 45.3253 13.3148 44.9925 13.4524C44.6597 13.5901 44.3017 13.6563 43.9417 13.6469C43.5817 13.6563 43.2237 13.5901 42.8909 13.4524C42.5581 13.3148 42.258 13.1088 42.0098 12.8478C41.7565 12.5916 41.5575 12.2868 41.4247 11.9518C41.2919 11.6169 41.2281 11.2585 41.237 10.8983C41.2284 10.5368 41.2923 10.1773 41.4251 9.84092C41.5578 9.50457 41.7566 9.19825 42.0098 8.94007C42.2602 8.68208 42.5608 8.47809 42.8931 8.34066C43.2253 8.20323 43.5822 8.13527 43.9417 8.14095C44.3019 8.1364 44.6591 8.20575 44.9914 8.3447C45.3237 8.48366 45.6239 8.68928 45.8736 8.94885C46.127 9.2051 46.326 9.50984 46.4587 9.84481C46.5915 10.1798 46.6553 10.5381 46.6464 10.8983C46.6553 11.2585 46.5915 11.6169 46.4587 11.9518C46.326 12.2868 46.127 12.5916 45.8736 12.8478Z" fill="#010100"/>
<path d="M42.5089 12.4085L42.4562 12.5051C42.6491 12.7052 42.8813 12.8631 43.1383 12.9689C43.3952 13.0747 43.6713 13.1261 43.9491 13.1198C44.2269 13.1261 44.503 13.0747 44.7599 12.9689C45.0168 12.8631 45.2491 12.7052 45.4419 12.5051C45.6442 12.2975 45.8029 12.0514 45.9084 11.7814C46.014 11.5115 46.0644 11.223 46.0566 10.9333C46.0646 10.6421 46.0143 10.3523 45.9088 10.0809C45.8032 9.80946 45.6445 9.56185 45.4419 9.3526C45.2481 9.15382 45.0157 8.99676 44.759 8.89106C44.5023 8.78535 44.2267 8.73323 43.9491 8.73789C43.6715 8.73323 43.3959 8.78535 43.1392 8.89106C42.8825 8.99676 42.6501 9.15382 42.4562 9.3526C42.2537 9.56185 42.095 9.80946 41.9894 10.0809C41.8838 10.3523 41.8336 10.6421 41.8415 10.9333C41.8338 11.223 41.8841 11.5115 41.9897 11.7814C42.0953 12.0514 42.2539 12.2975 42.4562 12.5051L42.5177 12.4437L42.5792 12.3822C42.3949 12.1895 42.2503 11.9623 42.1539 11.7137C42.0575 11.4651 42.011 11.1999 42.0172 10.9333C42.0053 10.3923 42.2072 9.8685 42.5792 9.47553C42.7563 9.29228 42.9695 9.14773 43.2052 9.051C43.441 8.95427 43.6943 8.90746 43.9491 8.91352C44.2039 8.90746 44.4571 8.95427 44.6929 9.051C44.9287 9.14773 45.1419 9.29228 45.319 9.47553C45.5052 9.66873 45.6508 9.89724 45.7473 10.1476C45.8439 10.3979 45.8893 10.6651 45.881 10.9333C45.8891 11.2001 45.8436 11.4659 45.747 11.7148C45.6505 11.9636 45.5049 12.1906 45.319 12.3822C45.1419 12.5654 44.9287 12.71 44.6929 12.8067C44.4571 12.9035 44.2039 12.9503 43.9491 12.9442C43.6943 12.9503 43.441 12.9035 43.2052 12.8067C42.9695 12.71 42.7563 12.5654 42.5792 12.3822L42.5177 12.4437L42.5089 12.4085ZM45.8722 12.8476L45.8107 12.7861C45.5703 13.0385 45.2796 13.2377 44.9574 13.3708C44.6353 13.5039 44.2888 13.568 43.9403 13.5589C43.5919 13.5674 43.2456 13.5031 42.9235 13.37C42.6014 13.2369 42.3106 13.0381 42.0699 12.7861C41.8267 12.5364 41.6356 12.241 41.5075 11.9169C41.3793 11.5928 41.3168 11.2466 41.3234 10.8981C41.3156 10.5482 41.3776 10.2003 41.5058 9.87462C41.6339 9.54894 41.8257 9.25207 42.0699 9.00134C42.3106 8.7494 42.6014 8.55053 42.9235 8.41746C43.2456 8.28439 43.5919 8.22005 43.9403 8.22857C44.2893 8.22172 44.6358 8.28768 44.9579 8.42225C45.2799 8.55681 45.5704 8.75703 45.8107 9.01012C46.0539 9.25981 46.245 9.55525 46.3731 9.87933C46.5013 10.2034 46.5638 10.5497 46.5572 10.8981C46.5638 11.2466 46.5013 11.5928 46.3731 11.9169C46.245 12.241 46.0539 12.5364 45.8107 12.7861L45.8722 12.8476L45.9337 12.9091C46.1969 12.646 46.4035 12.3319 46.5409 11.9861C46.6783 11.6403 46.7436 11.2701 46.7328 10.8981C46.7436 10.5262 46.6783 10.1559 46.5409 9.81013C46.4035 9.46433 46.1969 9.15025 45.9337 8.88718C45.6833 8.60713 45.3758 8.38389 45.032 8.23243C44.6882 8.08098 44.316 8.00481 43.9403 8.00904C43.5691 8.00195 43.2004 8.07161 42.8574 8.21365C42.5144 8.3557 42.2044 8.56706 41.9469 8.83449C41.6856 9.1007 41.4802 9.41658 41.3429 9.76347C41.2057 10.1104 41.1393 10.4813 41.1478 10.8542C41.139 11.2259 41.2053 11.5956 41.3426 11.9411C41.4799 12.2866 41.6854 12.6009 41.9469 12.8652C42.2021 13.1357 42.5117 13.3491 42.8552 13.4913C43.1988 13.6336 43.5686 13.7015 43.9403 13.6906C44.312 13.7015 44.6818 13.6336 45.0254 13.4913C45.3689 13.3491 45.6785 13.1357 45.9337 12.8652L45.8722 12.8037V12.8476Z" fill="#010100"/>
<path d="M50.0626 13.6468C49.6994 13.6573 49.3378 13.5925 49.0008 13.4565C48.6638 13.3204 48.3586 13.1162 48.1044 12.8565C47.8463 12.6015 47.6436 12.2959 47.5091 11.959C47.3747 11.622 47.3112 11.2609 47.3228 10.8982C47.3131 10.5345 47.3774 10.1726 47.5118 9.83452C47.6461 9.4964 47.8477 9.18908 48.1044 8.93119C48.3586 8.67151 48.6638 8.46724 49.0008 8.33123C49.3378 8.19521 49.6994 8.1304 50.0626 8.14086C50.4299 8.13304 50.7942 8.20791 51.1286 8.35991C51.463 8.51192 51.759 8.73717 51.9945 9.01901L51.5203 9.47564C51.3478 9.25669 51.1256 9.08196 50.8721 8.96591C50.6186 8.84986 50.3411 8.79582 50.0626 8.80825C49.7931 8.80176 49.5251 8.84974 49.2746 8.94933C49.0242 9.04892 48.7964 9.19807 48.6049 9.38783C48.4065 9.58797 48.2517 9.8271 48.1505 10.0901C48.0492 10.3531 48.0036 10.6343 48.0166 10.9158C48.0067 11.193 48.0539 11.4693 48.1551 11.7276C48.2563 11.9859 48.4094 12.2207 48.6049 12.4174C48.7964 12.6072 49.0242 12.7563 49.2746 12.8559C49.5251 12.9555 49.7931 13.0035 50.0626 12.997C50.3719 12.9983 50.6775 12.9303 50.9571 12.7981C51.2367 12.6659 51.4832 12.4728 51.6784 12.233L52.1526 12.7072C51.9138 12.9973 51.614 13.2312 51.2745 13.3922C50.9056 13.5621 50.5039 13.6491 50.0978 13.6468H50.0626Z" fill="#010100"/>
<path d="M50.0609 13.6473V13.5595C49.7105 13.5695 49.3618 13.5067 49.0369 13.3752C48.712 13.2437 48.4178 13.0464 48.1729 12.7955C47.9223 12.5487 47.7251 12.2529 47.5936 11.9266C47.4622 11.6003 47.3993 11.2504 47.4089 10.8987C47.3992 10.5457 47.4619 10.1945 47.5933 9.86674C47.7248 9.53898 47.922 9.24165 48.1729 8.99316C48.4178 8.74233 48.712 8.54495 49.0369 8.41346C49.3618 8.28197 49.7105 8.21922 50.0609 8.22917C50.4142 8.2177 50.7655 8.28687 51.088 8.43142C51.4106 8.57597 51.696 8.7921 51.9226 9.06341L51.9928 9.00194L51.9314 8.94047L51.4572 9.3971L51.5186 9.45857L51.5889 9.40589C51.4067 9.17764 51.1736 8.99521 50.9083 8.87322C50.643 8.75123 50.3528 8.69306 50.0609 8.70337C49.78 8.69704 49.5006 8.74744 49.2396 8.85155C48.9786 8.95566 48.7412 9.11134 48.5417 9.30929C48.3338 9.5165 48.1717 9.76503 48.0658 10.0388C47.9599 10.3126 47.9126 10.6055 47.927 10.8987C47.9133 11.1905 47.961 11.482 48.0668 11.7542C48.1727 12.0265 48.3345 12.2735 48.5417 12.4794C48.7412 12.6773 48.9786 12.833 49.2396 12.9371C49.5006 13.0412 49.78 13.0916 50.0609 13.0853C50.3817 13.087 50.6988 13.0168 50.989 12.8801C51.2792 12.7433 51.5352 12.5434 51.7382 12.295L51.6767 12.2335L51.6152 12.295L52.0806 12.7692L52.1509 12.7077L52.0806 12.6462C51.8398 12.9298 51.5402 13.1575 51.2025 13.3136C50.8452 13.48 50.455 13.564 50.0609 13.5595V13.7351C50.4822 13.7376 50.8988 13.6477 51.2815 13.4717C51.6403 13.3059 51.9582 13.0631 52.2124 12.7604L52.265 12.6989L51.7382 12.172L51.6679 12.1106L51.6064 12.1808C51.4202 12.4107 51.1845 12.5956 50.917 12.7218C50.6494 12.848 50.3568 12.9122 50.0609 12.9097C49.8028 12.9169 49.546 12.8715 49.306 12.7764C49.066 12.6813 48.8478 12.5384 48.6647 12.3565C48.4751 12.1657 48.3272 11.9376 48.2305 11.6866C48.1337 11.4357 48.0902 11.1674 48.1026 10.8987C48.09 10.6287 48.1335 10.3591 48.2302 10.1067C48.3269 9.85428 48.4748 9.62465 48.6647 9.43223C48.8478 9.25024 49.066 9.10736 49.306 9.01226C49.546 8.91716 49.8028 8.87182 50.0609 8.879C50.3265 8.86758 50.591 8.9198 50.8324 9.03131C51.0737 9.14282 51.2849 9.31038 51.4484 9.52004L51.5098 9.5903L52.0543 9.06341L52.1158 8.99316L52.0631 8.93169C51.8159 8.64535 51.5078 8.4179 51.1614 8.26596C50.815 8.11402 50.439 8.04145 50.0609 8.05354C49.6864 8.04484 49.314 8.11279 48.9667 8.25323C48.6194 8.39367 48.3044 8.60363 48.0412 8.87022C47.7759 9.13583 47.5675 9.45265 47.4286 9.80139C47.2897 10.1501 47.2233 10.5235 47.2333 10.8987C47.2239 11.2726 47.2908 11.6444 47.4296 11.9916C47.5685 12.3388 47.7766 12.6542 48.0412 12.9185C48.3044 13.1851 48.6194 13.395 48.9667 13.5355C49.314 13.6759 49.6864 13.7438 50.0609 13.7351V13.6473Z" fill="#010100"/>
<path d="M54.8839 13.5245H54.2078V8.90544H52.7413V8.25562H56.3592V8.90544H54.8839V13.5245Z" fill="#010100"/>
<path d="M54.8825 13.5239V13.4361H54.2942V8.81706H52.8277V8.34287H56.27V8.81706H54.7947V13.5239H54.8825V13.4361V13.5239H54.9703V8.99269H56.4456V8.25505V8.16724H52.652V8.90488V8.99269H54.1185V13.6117H54.8825H54.9703V13.5239H54.8825Z" fill="#010100"/>
<path d="M61.0047 8.26416L59.0114 12.7076C58.9306 12.9732 58.7685 13.2067 58.5479 13.3753C58.3274 13.5439 58.0594 13.639 57.7819 13.6472C57.6033 13.6447 57.427 13.6058 57.2638 13.533L57.4395 12.9008C57.5448 12.9663 57.6668 12.9998 57.7907 12.9974C57.9197 13.0059 58.0483 12.9753 58.1595 12.9095C58.2609 12.816 58.3417 12.7024 58.3967 12.5759L58.5898 12.1543L56.8336 8.26416H57.6239L58.9235 11.285L60.1968 8.26416H61.0047Z" fill="#010100"/>
<path d="M61.0037 8.26356H60.9247L58.9313 12.707C58.8559 12.9555 58.7042 13.174 58.4978 13.3316C58.2913 13.4892 58.0406 13.5779 57.7809 13.5851C57.6136 13.5821 57.4489 13.5432 57.298 13.471V13.5588H57.377L57.5526 12.9353H57.4736V13.0143C57.5936 13.0839 57.73 13.1203 57.8688 13.1197C58.0141 13.13 58.1589 13.093 58.2815 13.0143C58.4008 12.9153 58.4942 12.7887 58.5537 12.6455L58.7469 12.224L56.9906 8.42163H57.5965L58.8962 11.4424H59.0367L60.31 8.42163H61.0476V8.33382H60.9686H61.0476V8.246H60.1695L58.8786 11.3195H58.9577V11.2317V11.3195H59.0455L57.7195 8.246H56.7272L58.5449 12.224L58.3693 12.6104C58.3208 12.7236 58.249 12.8253 58.1585 12.9089C58.062 12.9619 57.9523 12.9863 57.8424 12.9792C57.735 12.979 57.6293 12.9519 57.5351 12.9002L57.3858 12.7684L57.175 13.5061V13.5763H57.2453C57.4199 13.6529 57.6079 13.6947 57.7985 13.6993C58.0931 13.692 58.378 13.5923 58.6128 13.4142C58.8476 13.2361 59.0205 12.9887 59.1069 12.707L61.1618 8.14062H61.0213V8.22844L61.0037 8.26356Z" fill="#010100"/>
<path d="M61.7766 13.5245V8.25562H65.5877V13.5245H64.9115V8.90544H62.4527V13.5245H61.7766Z" fill="#010100"/>
<path d="M61.7751 13.5239H61.8629V8.34287H65.4985V13.4361H64.9979V8.81706H62.3635V13.4361H61.7751V13.5239H61.8629H61.7751V13.6117H62.4513H62.5391V8.99269H64.8223V13.6117H65.5863H65.6741V8.16724H61.6873V13.6117H61.7751V13.5239Z" fill="#010100"/>
<path d="M66.7916 13.5245V8.25562H67.4677V10.5212H70.1022V8.25562H70.7783V13.5245H70.1022V11.1535H67.4677V13.5245H66.7916Z" fill="#010100"/>
<path d="M66.7902 13.5239H66.878V8.34287H67.3786V10.6085H70.1886V8.34287H70.6892V13.4361H70.1886V11.0651H67.3786V13.4361H66.7902V13.5239H66.878H66.7902V13.6117H67.4664H67.5542V11.2407H70.013V13.6117H70.777H70.8648V8.16724H70.1008H70.013V10.4328H67.5542V8.16724H66.7902H66.7024V13.6117H66.7902V13.5239Z" fill="#010100"/>
<path d="M72.9298 12.409C73.1152 12.6 73.338 12.7508 73.5843 12.852C73.8305 12.9532 74.095 13.0027 74.3612 12.9974C74.6334 13.0093 74.905 12.963 75.1579 12.8615C75.4108 12.7601 75.6392 12.6058 75.8277 12.409C76.023 12.2103 76.1759 11.9739 76.2771 11.7143C76.3782 11.4546 76.4255 11.1771 76.416 10.8986C76.4267 10.6186 76.38 10.3395 76.2788 10.0782C76.1776 9.81695 76.0241 9.57914 75.8277 9.3794C75.6432 9.18711 75.4205 9.03545 75.1741 8.93414C74.9276 8.83283 74.6627 8.78409 74.3963 8.79105C74.1301 8.78569 73.8657 8.83516 73.6194 8.93638C73.3732 9.03759 73.1504 9.1884 72.9649 9.3794C72.759 9.57517 72.5952 9.81085 72.4835 10.0721C72.3717 10.3333 72.3144 10.6145 72.3151 10.8986C72.306 11.1763 72.3526 11.453 72.4521 11.7124C72.5516 11.9718 72.7021 12.2087 72.8947 12.409H72.9298ZM76.2931 12.8481C76.0449 13.1091 75.7447 13.315 75.4119 13.4527C75.0791 13.5903 74.7212 13.6566 74.3612 13.6472C74.0012 13.6561 73.6434 13.5896 73.3107 13.4519C72.978 13.3143 72.6777 13.1086 72.4292 12.8481C72.1759 12.5918 71.9769 12.2871 71.8441 11.9521C71.7113 11.6171 71.6475 11.2588 71.6565 10.8986C71.6478 10.5371 71.7118 10.1775 71.8445 9.84119C71.9772 9.50484 72.1761 9.19851 72.4292 8.94033C72.6797 8.68235 72.9803 8.47836 73.3125 8.34093C73.6448 8.2035 74.0016 8.13553 74.3612 8.14122C74.7217 8.13347 75.08 8.20136 75.4127 8.3405C75.7454 8.47965 76.0453 8.68698 76.2931 8.94912C76.5476 9.20494 76.7479 9.5094 76.8822 9.84433C77.0165 10.1793 77.0819 10.5378 77.0746 10.8986C77.0819 11.2594 77.0165 11.6179 76.8822 11.9529C76.7479 12.2878 76.5476 12.5923 76.2931 12.8481Z" fill="#010100"/>
<path d="M72.9281 12.4088L72.8666 12.4702C73.0598 12.6699 73.2921 12.8275 73.5489 12.9332C73.8058 13.039 74.0817 13.0907 74.3594 13.0849C74.6303 13.0921 74.8999 13.0445 75.1519 12.9449C75.4039 12.8453 75.6332 12.6958 75.8259 12.5054C76.0299 12.2989 76.1896 12.0531 76.2953 11.7828C76.401 11.5125 76.4504 11.2235 76.4406 10.9335C76.4506 10.6421 76.4013 10.3518 76.2956 10.08C76.1899 9.80832 76.0301 9.56091 75.8259 9.35283C75.6321 9.15406 75.3997 8.997 75.143 8.8913C74.8863 8.78559 74.6107 8.73347 74.3331 8.73813C74.0556 8.7345 73.7803 8.78709 73.5238 8.89273C73.2672 8.99838 73.0347 9.15489 72.8402 9.35283C72.6389 9.56252 72.4815 9.81041 72.3774 10.0819C72.2734 10.3534 72.2247 10.6429 72.2343 10.9335C72.2283 11.2246 72.2813 11.5139 72.3899 11.784C72.4986 12.0541 72.6607 12.2995 72.8666 12.5054L72.9281 12.4439L72.9895 12.3824C72.8048 12.1904 72.6606 11.9632 72.5655 11.7142C72.4705 11.4653 72.4265 11.1998 72.4363 10.9335C72.4268 10.6659 72.4709 10.3992 72.5659 10.1488C72.6609 9.89851 72.8049 9.66969 72.9895 9.47577C73.1666 9.29252 73.3798 9.14797 73.6156 9.05124C73.8514 8.9545 74.1047 8.90769 74.3594 8.91376C74.6143 8.90716 74.8677 8.95372 75.1036 9.05049C75.3394 9.14725 75.5526 9.29209 75.7293 9.47577C75.9172 9.66779 76.0639 9.89609 76.1605 10.1467C76.2572 10.3974 76.3017 10.6651 76.2913 10.9335C76.3015 11.2006 76.2569 11.4669 76.1602 11.7161C76.0636 11.9653 75.9169 12.1921 75.7293 12.3824C75.5526 12.5661 75.3394 12.711 75.1036 12.8077C74.8677 12.9045 74.6143 12.951 74.3594 12.9444C74.1047 12.9505 73.8514 12.9037 73.6156 12.807C73.3798 12.7102 73.1666 12.5657 72.9895 12.3824L72.9281 12.4439V12.4088ZM76.2913 12.8478L76.2299 12.7864C75.9901 13.0396 75.6995 13.2394 75.3772 13.3726C75.0549 13.5057 74.708 13.5693 74.3594 13.5591C74.0122 13.5686 73.6669 13.5047 73.3461 13.3715C73.0253 13.2384 72.7362 13.039 72.4978 12.7864C72.2502 12.5395 72.0556 12.2448 71.9257 11.9201C71.7959 11.5955 71.7336 11.2479 71.7426 10.8984C71.7317 10.546 71.7931 10.1952 71.9229 9.86742C72.0528 9.53969 72.2485 9.24203 72.4978 8.99279C72.7362 8.74021 73.0253 8.54082 73.3461 8.40765C73.6669 8.27449 74.0122 8.21055 74.3594 8.22003C74.7084 8.21317 75.055 8.27914 75.377 8.4137C75.6991 8.54827 75.9895 8.74848 76.2299 9.00157C76.4746 9.25054 76.6673 9.54566 76.797 9.86978C76.9266 10.1939 76.9906 10.5405 76.9851 10.8896C76.9906 11.2386 76.9266 11.5853 76.797 11.9094C76.6673 12.2335 76.4746 12.5286 76.2299 12.7776L76.2913 12.8391L76.3616 12.9005C76.6215 12.6351 76.826 12.3206 76.9632 11.9753C77.1004 11.6301 77.1675 11.261 77.1607 10.8896C77.1683 10.5173 77.1007 10.1473 76.9619 9.8017C76.8231 9.45615 76.6159 9.14219 76.3528 8.87863C76.1024 8.59859 75.7949 8.37535 75.4511 8.22389C75.1073 8.07243 74.7351 7.99626 74.3594 8.00049C73.9882 7.99341 73.6196 8.06307 73.2766 8.20511C72.9335 8.34715 72.6236 8.55852 72.366 8.82595C72.1067 9.0936 71.9026 9.40973 71.7655 9.75629C71.6284 10.1028 71.5609 10.473 71.5669 10.8457C71.5601 11.2171 71.6273 11.5862 71.7645 11.9314C71.9017 12.2767 72.1062 12.5912 72.366 12.8566C72.6212 13.1271 72.9308 13.3405 73.2744 13.4828C73.6179 13.6251 73.9877 13.693 74.3594 13.6821C74.7322 13.6909 75.1027 13.6221 75.4474 13.48C75.7921 13.3379 76.1034 13.1256 76.3616 12.8566L76.2913 12.7952V12.8478Z" fill="#010100"/>
<path d="M80.5164 12.8826H81.8775C81.9966 12.8878 82.1153 12.866 82.2248 12.8189C82.3343 12.7718 82.4317 12.7005 82.5098 12.6103C82.6646 12.4498 82.7525 12.2363 82.7556 12.0132C82.7479 11.792 82.657 11.5819 82.501 11.4248C82.4173 11.3371 82.3164 11.2676 82.2046 11.2207C82.0927 11.1739 81.9724 11.1507 81.8512 11.1526H80.5164V12.9089V12.8826ZM80.5164 10.5204H81.7458C81.8604 10.524 81.9746 10.5032 82.0806 10.4592C82.1866 10.4153 82.282 10.3494 82.3605 10.2657C82.433 10.193 82.4905 10.1067 82.5297 10.0118C82.5689 9.91688 82.589 9.81516 82.5888 9.71247C82.5887 9.50684 82.5102 9.30899 82.3693 9.15924C82.2942 9.07602 82.2018 9.01013 82.0987 8.96616C81.9956 8.92219 81.8842 8.90117 81.7721 8.90458H80.5164V10.5204ZM79.8402 13.5324V8.26353H81.7458C82.1416 8.25515 82.5254 8.39986 82.8171 8.66748C82.9634 8.79521 83.08 8.95331 83.1589 9.13076C83.2378 9.30822 83.277 9.50074 83.2738 9.6949C83.2782 9.93034 83.2075 10.1611 83.0718 10.3535C82.9472 10.5487 82.7666 10.7017 82.5537 10.7926C82.8079 10.8779 83.031 11.0368 83.1947 11.2492C83.3629 11.4647 83.4528 11.7311 83.4494 12.0044C83.4539 12.2069 83.4137 12.4078 83.3317 12.593C83.2498 12.7781 83.128 12.943 82.9752 13.0758C82.668 13.3555 82.2666 13.5092 81.8512 13.506L79.8402 13.5324Z" fill="#010100"/>
<path d="M80.5139 12.8829V12.9707H81.875C82.0066 12.9734 82.1372 12.9482 82.2583 12.8967C82.3794 12.8453 82.4882 12.7687 82.5775 12.6721C82.7421 12.4917 82.8357 12.2577 82.841 12.0135C82.8362 11.7702 82.7388 11.5378 82.5688 11.3637C82.4774 11.2648 82.3658 11.1869 82.2415 11.1354C82.1172 11.0838 81.9832 11.0599 81.8487 11.0651H80.4261V12.9707H80.5139V12.8829H80.6017V11.2407H81.8487C81.958 11.2358 82.0671 11.2544 82.1686 11.2953C82.2701 11.3362 82.3617 11.3985 82.437 11.4778C82.5086 11.5476 82.5657 11.6308 82.6049 11.7228C82.6441 11.8147 82.6646 11.9136 82.6654 12.0135C82.6634 12.2136 82.5849 12.4053 82.4458 12.5492C82.3751 12.6302 82.2871 12.6943 82.1883 12.7369C82.0895 12.7794 81.9825 12.7993 81.875 12.7951H80.5139V12.8829ZM80.5139 10.5207V10.6085H81.7433C81.8696 10.613 81.9954 10.5903 82.1121 10.5418C82.2288 10.4933 82.3336 10.4202 82.4195 10.3275C82.5817 10.1639 82.6732 9.94314 82.6741 9.71277C82.6755 9.48364 82.5873 9.26304 82.4283 9.09807C82.3444 9.00759 82.2424 8.9358 82.1289 8.88739C82.0154 8.83897 81.893 8.81501 81.7696 8.81706H80.4261V10.5734H80.5139V10.4855H80.6017V8.99269H81.7696C81.8688 8.99035 81.9672 9.00955 82.0582 9.04897C82.1491 9.08839 82.2305 9.14709 82.2965 9.22101C82.3613 9.28538 82.4125 9.36205 82.4472 9.4465C82.4819 9.53095 82.4993 9.62148 82.4985 9.71277C82.4973 9.89663 82.4249 10.0729 82.2965 10.2045C82.2264 10.2805 82.1406 10.3403 82.0451 10.3797C81.9496 10.4191 81.8466 10.4373 81.7433 10.4328H80.5139V10.5207ZM79.8377 13.5327H79.9255V8.35165H81.7433C82.1178 8.34155 82.481 8.48052 82.7532 8.73803C82.8906 8.85633 83.0004 9.00338 83.0747 9.16878C83.1491 9.33418 83.1862 9.51389 83.1835 9.69521C83.1886 9.91446 83.124 10.1297 82.999 10.3099C82.8765 10.4848 82.7098 10.6241 82.5161 10.7139H82.4634V10.8544H82.5248C82.7628 10.9295 82.9715 11.0768 83.122 11.2759C83.2801 11.4754 83.3639 11.7238 83.3591 11.9784C83.3626 12.1692 83.3243 12.3584 83.247 12.5329C83.1696 12.7073 83.055 12.8628 82.9112 12.9882C82.6198 13.2507 82.2409 13.3948 81.8487 13.3922H79.8377V13.48V13.5678H81.8487C82.2849 13.5719 82.7061 13.4084 83.0254 13.1112C83.188 12.9711 83.3179 12.7971 83.4059 12.6014C83.4939 12.4056 83.5379 12.193 83.5347 11.9784C83.5374 11.6861 83.4415 11.4015 83.2625 11.1705C83.0902 10.9419 82.8507 10.773 82.5775 10.6875V10.7665H82.6654H82.5775V10.8456C82.803 10.7434 82.9971 10.5827 83.1396 10.3802C83.2814 10.1704 83.355 9.92201 83.3503 9.66886C83.3473 9.46633 83.3011 9.26676 83.2148 9.08352C83.1285 8.90027 83.004 8.73758 82.8498 8.60631C82.5413 8.32293 82.1358 8.16889 81.717 8.17602H79.7236V13.6205H79.8114V13.5327H79.8377Z" fill="#010100"/>
<path d="M92.8697 28.461H94.5118V17.4841H92.8697V28.461ZM107.631 21.4358L105.752 26.1953H105.682L103.732 21.4358H101.976L104.9 28.0833L103.241 31.8242H104.944L109.449 21.4709L107.631 21.4358ZM98.3405 27.214C97.8049 27.214 97.0496 26.9418 97.0496 26.2832C97.0496 25.405 97.9893 25.1064 98.8059 25.1064C99.3304 25.0937 99.8487 25.221 100.308 25.4753C100.25 25.9544 100.021 26.3964 99.6625 26.7194C99.304 27.0424 98.8406 27.2243 98.3581 27.2315L98.3405 27.214ZM98.5337 21.1987C97.9359 21.163 97.3406 21.3027 96.8211 21.6006C96.3016 21.8986 95.8805 22.3419 95.6095 22.876L97.0672 23.4819C97.2101 23.2162 97.4275 22.9982 97.6928 22.8546C97.9581 22.7111 98.2595 22.6483 98.5601 22.674C98.7685 22.6496 98.9797 22.667 99.1814 22.7252C99.3831 22.7834 99.5711 22.8811 99.7346 23.0127C99.8981 23.1443 100.034 23.3071 100.134 23.4917C100.233 23.6763 100.296 23.8789 100.316 24.0878V24.202C99.7752 23.9174 99.1715 23.7725 98.5601 23.7804C96.997 23.7804 95.3987 24.6586 95.3987 26.248C95.4131 26.5873 95.4956 26.9203 95.6413 27.227C95.7871 27.5338 95.9932 27.808 96.2472 28.0334C96.5013 28.2587 96.7981 28.4306 97.1201 28.5388C97.442 28.6469 97.7824 28.6892 98.121 28.6629C98.5335 28.6885 98.9452 28.6025 99.313 28.414C99.6807 28.2255 99.9909 27.9414 100.211 27.5916H100.272V28.4697H101.853V24.2546C101.853 22.3052 100.395 21.225 98.5162 21.225L98.5337 21.1987ZM88.4087 22.7706H86.0816V19.0121H88.4087C88.6585 19.0086 88.9066 19.0546 89.1386 19.1472C89.3707 19.2399 89.5821 19.3775 89.7608 19.5521C89.9395 19.7267 90.0819 19.9349 90.1799 20.1648C90.2779 20.3946 90.3296 20.6415 90.3318 20.8913C90.3249 21.3952 90.1187 21.8758 89.7583 22.228C89.3978 22.5802 88.9126 22.7753 88.4087 22.7706ZM88.4087 17.5017H84.4834V28.4785H86.1255V24.3161H88.4087C89.3374 24.3397 90.2377 23.9945 90.9124 23.3559C91.5872 22.7174 91.9815 21.8375 92.0091 20.9089C91.9815 19.9803 91.5872 19.1004 90.9124 18.4619C90.2377 17.8233 89.3374 17.4781 88.4087 17.5017ZM66.9557 27.214C66.6704 27.2062 66.3896 27.1414 66.1297 27.0236C65.8698 26.9057 65.636 26.7372 65.4422 26.5277C65.2483 26.3183 65.0982 26.0723 65.0007 25.8041C64.9032 25.5359 64.8603 25.251 64.8745 24.9659C64.8591 24.6789 64.901 24.3917 64.9976 24.1209C65.0942 23.8502 65.2437 23.6014 65.4374 23.3889C65.631 23.1765 65.865 23.0047 66.1256 22.8834C66.3863 22.7622 66.6684 22.694 66.9557 22.6828C67.2381 22.6971 67.5148 22.7681 67.7692 22.8916C68.0237 23.015 68.2507 23.1885 68.4367 23.4015C68.6227 23.6146 68.7639 23.8629 68.8519 24.1316C68.9399 24.4004 68.973 24.6841 68.949 24.9659C68.9705 25.2454 68.9355 25.5264 68.8462 25.7921C68.7568 26.0578 68.6149 26.3028 68.429 26.5126C68.243 26.7223 68.0167 26.8925 67.7636 27.013C67.5105 27.1335 67.2357 27.2019 66.9557 27.214ZM68.7998 22.0505C68.5483 21.7818 68.2434 21.5687 67.9046 21.425C67.5658 21.2813 67.2007 21.2102 66.8327 21.2163C65.8645 21.2506 64.9479 21.6618 64.2786 22.3623C63.6093 23.0628 63.2401 23.9971 63.2499 24.9659C63.2449 25.93 63.6166 26.8579 64.2859 27.5518C64.9552 28.2457 65.8691 28.6507 66.8327 28.6805C67.2046 28.685 67.573 28.6088 67.9126 28.4572C68.2521 28.3056 68.5548 28.0822 68.7998 27.8023V28.338C68.7998 29.7694 68.0358 30.5334 66.8064 30.5334C66.3959 30.5231 65.9978 30.3906 65.663 30.1528C65.3283 29.915 65.072 29.5828 64.9271 29.1986L63.4958 29.7957C63.7652 30.4511 64.2243 31.0111 64.8142 31.4038C65.404 31.7965 66.0978 32.0041 66.8064 31.9999C68.7295 31.9999 70.319 30.8671 70.319 28.1097V21.4095H68.7998V22.0154V22.0505ZM71.4869 28.461H73.1905V17.4841H71.522V28.461H71.4869ZM75.5878 24.7991C75.5749 24.5268 75.6165 24.2546 75.7102 23.9986C75.8039 23.7425 75.9478 23.5078 76.1335 23.3082C76.3192 23.1086 76.543 22.9481 76.7916 22.8362C77.0402 22.7242 77.3086 22.6631 77.5812 22.6564C77.8645 22.6378 78.147 22.7027 78.3936 22.8432C78.6403 22.9837 78.8402 23.1936 78.9687 23.4467L75.5878 24.7991ZM80.681 23.5521C80.4506 22.88 80.0217 22.2936 79.451 21.8703C78.8803 21.447 78.1947 21.2067 77.4846 21.1811C77.0043 21.1802 76.5288 21.2778 76.0877 21.4679C75.6466 21.658 75.2491 21.9365 74.9199 22.2863C74.5907 22.6361 74.3367 23.0497 74.1737 23.5015C74.0106 23.9534 73.942 24.4338 73.972 24.9132C73.9601 25.4044 74.0476 25.8929 74.2293 26.3493C74.411 26.8057 74.6831 27.2208 75.0292 27.5694C75.3754 27.918 75.7885 28.193 76.2436 28.3779C76.6988 28.5628 77.1866 28.6538 77.6778 28.6454C78.2921 28.6487 78.8976 28.4996 79.4401 28.2115C79.9826 27.9234 80.4452 27.5052 80.7864 26.9945L79.5131 26.1163C79.3237 26.4337 79.0548 26.6962 78.733 26.878C78.4111 27.0597 78.0474 27.1543 77.6778 27.1525C77.2976 27.1776 76.9184 27.0892 76.5885 26.8984C76.2587 26.7077 75.9929 26.4232 75.8249 26.0812L80.8216 24.0175L80.6547 23.5873L80.681 23.5521ZM40.8923 22.3227V23.9209H44.6859C44.6264 24.6654 44.317 25.3679 43.8078 25.9143C43.4292 26.3023 42.9731 26.606 42.4693 26.8057C41.9654 27.0055 41.4251 27.0967 40.8836 27.0735C40.3325 27.0735 39.7869 26.9641 39.2784 26.7517C38.7699 26.5392 38.3087 26.2279 37.9215 25.8358C37.5343 25.4437 37.2288 24.9786 37.0228 24.4675C36.8167 23.9564 36.7142 23.4094 36.7212 22.8584C36.7142 22.3074 36.8167 21.7604 37.0228 21.2493C37.2288 20.7382 37.5343 20.2731 37.9215 19.881C38.3087 19.4889 38.7699 19.1776 39.2784 18.9651C39.7869 18.7526 40.3325 18.6433 40.8836 18.6433C41.9474 18.6276 42.974 19.0351 43.7375 19.7761L44.8616 18.6521C44.3379 18.1348 43.7164 17.7271 43.0334 17.4527C42.3504 17.1783 41.6195 17.0427 40.8836 17.0539C39.3367 17.0537 37.8521 17.6627 36.7509 18.7491C35.6498 19.8354 35.0208 21.3117 35 22.8584C35.0208 24.4043 35.6501 25.8796 36.7515 26.9646C37.8529 28.0495 39.3375 28.6566 40.8836 28.6541C41.6352 28.6881 42.3854 28.5607 43.0837 28.2805C43.782 28.0002 44.4122 27.5737 44.9318 27.0296C45.8518 26.0188 46.343 24.69 46.3017 23.3238C46.3066 22.9909 46.2772 22.6584 46.2139 22.3315L40.8923 22.3227ZM50.6222 27.1789C50.3339 27.1722 50.0498 27.1078 49.7868 26.9896C49.5237 26.8714 49.287 26.7017 49.0906 26.4906C48.8942 26.2794 48.742 26.031 48.6431 25.7601C48.5442 25.4893 48.5005 25.2013 48.5146 24.9132C48.4993 24.6249 48.5421 24.3364 48.6405 24.065C48.739 23.7936 48.8911 23.5448 49.0878 23.3333C49.2844 23.1219 49.5216 22.9523 49.7852 22.8345C50.0489 22.7167 50.3335 22.6531 50.6222 22.6476C50.9109 22.6531 51.1955 22.7167 51.4591 22.8345C51.7227 22.9523 51.9599 23.1219 52.1566 23.3333C52.3533 23.5448 52.5053 23.7936 52.6038 24.065C52.7023 24.3364 52.7451 24.6249 52.7297 24.9132C52.7439 25.2013 52.7002 25.4893 52.6013 25.7601C52.5024 26.031 52.3502 26.2794 52.1538 26.4906C51.9574 26.7017 51.7206 26.8714 51.4576 26.9896C51.1945 27.1078 50.9105 27.1722 50.6222 27.1789ZM50.6222 21.1811C50.1234 21.1679 49.6272 21.2562 49.1637 21.4407C48.7002 21.6253 48.279 21.9021 47.9258 22.2545C47.5726 22.6069 47.2948 23.0274 47.1092 23.4905C46.9236 23.9536 46.8341 24.4496 46.8462 24.9484C46.8402 25.4416 46.9333 25.931 47.1198 26.3877C47.3064 26.8443 47.5827 27.2589 47.9323 27.6069C48.2819 27.9548 48.6978 28.2292 49.1553 28.4136C49.6128 28.598 50.1026 28.6887 50.5958 28.6805C51.089 28.6887 51.5789 28.598 52.0364 28.4136C52.4939 28.2292 52.9098 27.9548 53.2594 27.6069C53.609 27.2589 53.8853 26.8443 54.0718 26.3877C54.2584 25.931 54.3515 25.4416 54.3455 24.9484C54.3527 24.4548 54.2604 23.9648 54.0743 23.5076C53.8882 23.0505 53.612 22.6354 53.2621 22.2872C52.9122 21.9389 52.4959 21.6647 52.0378 21.4807C51.5798 21.2967 51.0894 21.2068 50.5958 21.2163L50.6222 21.1811ZM58.7977 27.1789C58.5094 27.1722 58.2253 27.1078 57.9623 26.9896C57.6992 26.8714 57.4625 26.7017 57.2661 26.4906C57.0697 26.2794 56.9175 26.031 56.8186 25.7601C56.7197 25.4893 56.676 25.2013 56.6902 24.9132C56.6748 24.6249 56.7176 24.3364 56.8161 24.065C56.9145 23.7936 57.0666 23.5448 57.2633 23.3333C57.46 23.1219 57.6972 22.9523 57.9608 22.8345C58.2244 22.7167 58.509 22.6531 58.7977 22.6476C59.0888 22.6541 59.3755 22.7195 59.6406 22.84C59.9056 22.9605 60.1435 23.1335 60.3397 23.3486C60.5359 23.5637 60.6864 23.8164 60.7821 24.0914C60.8778 24.3664 60.9167 24.6579 60.8965 24.9484C60.9106 25.2364 60.8669 25.5244 60.768 25.7953C60.6691 26.0662 60.5169 26.3145 60.3205 26.5257C60.1241 26.7368 59.8874 26.9065 59.6243 27.0247C59.3613 27.143 59.0772 27.2073 58.7889 27.214L58.7977 27.1789ZM58.7977 21.1811C58.3042 21.1717 57.8138 21.2616 57.3557 21.4456C56.8976 21.6295 56.4813 21.9038 56.1314 22.252C55.7816 22.6003 55.5053 23.0153 55.3192 23.4725C55.1331 23.9297 55.0409 24.4197 55.048 24.9132C55.0421 25.4065 55.1351 25.8959 55.3217 26.3525C55.5083 26.8092 55.7845 27.2238 56.1341 27.5717C56.4838 27.9197 56.8996 28.194 57.3571 28.3784C57.8146 28.5629 58.3045 28.6536 58.7977 28.6454C59.2909 28.6536 59.7808 28.5629 60.2383 28.3784C60.6958 28.194 61.1116 27.9197 61.4613 27.5717C61.8109 27.2238 62.0871 26.8092 62.2737 26.3525C62.4603 25.8959 62.5533 25.4065 62.5474 24.9132C62.5545 24.4197 62.4623 23.9297 62.2762 23.4725C62.0901 23.0153 61.8138 22.6003 61.464 22.252C61.1141 21.9038 60.6978 21.6295 60.2397 21.4456C59.7816 21.2616 59.2912 21.1717 58.7977 21.1811Z" fill="#010100"/>
<path d="M10.4 9.06079C10.16 9.30079 10 9.70079 10 10.1808V27.8608C10 28.3408 10.16 28.7408 10.4 28.9808L10.48 29.0608L20.4 19.1408V19.0608V18.9808L10.4 9.06079Z" fill="url(#paint0_linear_2_4419)"/>
<path d="M23.68 22.5009L20.4 19.2209V19.0609V18.9809L23.68 15.7009L23.76 15.7809L27.68 18.0209C28.8 18.6609 28.8 19.7009 27.68 20.3409L23.68 22.5009Z" fill="url(#paint1_linear_2_4419)"/>
<path d="M23.76 22.4208L20.4 19.0608L10.4 29.0608C10.8 29.4608 11.36 29.4608 12.08 29.1408L23.76 22.4208Z" fill="url(#paint2_linear_2_4419)"/>
<path d="M23.76 15.7008L12.08 9.06083C11.36 8.66083 10.8 8.74083 10.4 9.14083L20.4 19.0608L23.76 15.7008Z" fill="url(#paint3_linear_2_4419)"/>
<path opacity="0.2" d="M23.68 22.3408L12.08 28.9008C11.44 29.3008 10.88 29.2208 10.48 28.9008L10.4 28.9808L10.48 29.0608C10.88 29.3808 11.44 29.4608 12.08 29.0608L23.68 22.3408Z" fill="black"/>
<path opacity="0.12" d="M10.4001 28.9008C10.1601 28.6608 10.0801 28.2608 10.0801 27.7808V27.8608C10.0801 28.3408 10.2401 28.7408 10.4801 28.9808V28.9008H10.4001Z" fill="black"/>
<path opacity="0.12" d="M27.6801 20.1008L23.6801 22.3408L23.7601 22.4208L27.6801 20.1808C28.2401 19.8608 28.4801 19.4608 28.4801 19.0608C28.4801 19.4608 28.1601 19.7808 27.6801 20.1008Z" fill="black"/>
<path opacity="0.25" d="M12.0801 9.14084L27.6801 18.0208C28.1601 18.3408 28.4801 18.6608 28.4801 19.0608C28.4801 18.6608 28.2401 18.2608 27.6801 17.9408L12.0801 9.06084C10.9601 8.42084 10.0801 8.98084 10.0801 10.2608V10.3408C10.0801 9.06084 10.9601 8.50084 12.0801 9.14084Z" fill="white"/>
<defs>
<linearGradient id="paint0_linear_2_4419" x1="19.5198" y1="10.0286" x2="6.09384" y2="23.4545" gradientUnits="userSpaceOnUse">
<stop stop-color="#00A0FF"/>
<stop offset="0.00657445" stop-color="#00A1FF"/>
<stop offset="0.2601" stop-color="#00BEFF"/>
<stop offset="0.5122" stop-color="#00D2FF"/>
<stop offset="0.7604" stop-color="#00DFFF"/>
<stop offset="1" stop-color="#00E3FF"/>
</linearGradient>
<linearGradient id="paint1_linear_2_4419" x1="29.1475" y1="19.062" x2="9.79003" y2="19.062" gradientUnits="userSpaceOnUse">
<stop stop-color="#FFE000"/>
<stop offset="0.4087" stop-color="#FFBD00"/>
<stop offset="0.7754" stop-color="#FFA500"/>
<stop offset="1" stop-color="#FF9C00"/>
</linearGradient>
<linearGradient id="paint2_linear_2_4419" x1="21.9416" y1="20.8977" x2="3.73498" y2="39.1043" gradientUnits="userSpaceOnUse">
<stop stop-color="#FF3A44"/>
<stop offset="1" stop-color="#C31162"/>
</linearGradient>
<linearGradient id="paint3_linear_2_4419" x1="7.91786" y1="3.20179" x2="16.0479" y2="11.3318" gradientUnits="userSpaceOnUse">
<stop stop-color="#32A071"/>
<stop offset="0.0685" stop-color="#2DA771"/>
<stop offset="0.4762" stop-color="#15CF74"/>
<stop offset="0.8009" stop-color="#06E775"/>
<stop offset="1" stop-color="#00F076"/>
</linearGradient>
</defs>
</svg>